<svg width="47" height="47" viewBox="0 0 47 47" fill="none" xmlns="http://www.w3.org/2000/svg">
<g opacity="0.5">
<path d="M23.2077 1.11169C35.6275 1.11169 45.6903 11.1744 45.6903 23.5942C45.6903 36.014 35.6275 46.0767 23.2077 46.0767C10.788 46.0767 0.725242 36.014 0.725242 23.5942C0.725242 11.1744 10.788 1.11169 23.2077 1.11169ZM31.548 29.4868C31.7293 29.3055 31.9107 28.9429 31.9107 28.5802C31.9107 28.127 31.6387 27.7643 31.3667 27.4924L26.1087 23.5942V10.5398C26.1087 9.81459 25.3835 9.08935 24.6582 9.08935H21.7573C20.9414 9.08935 20.3068 9.81459 20.3068 10.5398V24.6821C20.3068 25.8606 20.7601 26.8578 21.6666 27.4924L27.7405 32.0251C27.9218 32.2064 28.2844 32.3878 28.5564 32.3878C29.1003 32.3878 29.463 32.1158 29.7349 31.7532L31.548 29.4868Z" fill="white"/>
</g>
</svg>
