<svg width="20" height="20" viewBox="0 0 20 20" fill="none" xmlns="http://www.w3.org/2000/svg">
<path d="M5.83366 8.95841H4.16699C2.15033 8.95841 1.04199 7.85008 1.04199 5.83341V4.16675C1.04199 2.15008 2.15033 1.04175 4.16699 1.04175H5.83366C7.85033 1.04175 8.95866 2.15008 8.95866 4.16675V5.83341C8.95866 7.85008 7.85033 8.95841 5.83366 8.95841ZM4.16699 2.29175C2.85033 2.29175 2.29199 2.85008 2.29199 4.16675V5.83341C2.29199 7.15008 2.85033 7.70841 4.16699 7.70841H5.83366C7.15033 7.70841 7.70866 7.15008 7.70866 5.83341V4.16675C7.70866 2.85008 7.15033 2.29175 5.83366 2.29175H4.16699Z" fill="#3F6EEC"/>
<path d="M15.8337 8.95841H14.167C12.1503 8.95841 11.042 7.85008 11.042 5.83341V4.16675C11.042 2.15008 12.1503 1.04175 14.167 1.04175H15.8337C17.8503 1.04175 18.9587 2.15008 18.9587 4.16675V5.83341C18.9587 7.85008 17.8503 8.95841 15.8337 8.95841ZM14.167 2.29175C12.8503 2.29175 12.292 2.85008 12.292 4.16675V5.83341C12.292 7.15008 12.8503 7.70841 14.167 7.70841H15.8337C17.1503 7.70841 17.7087 7.15008 17.7087 5.83341V4.16675C17.7087 2.85008 17.1503 2.29175 15.8337 2.29175H14.167Z" fill="#3F6EEC"/>
<path d="M15.8337 18.9584H14.167C12.1503 18.9584 11.042 17.8501 11.042 15.8334V14.1667C11.042 12.1501 12.1503 11.0417 14.167 11.0417H15.8337C17.8503 11.0417 18.9587 12.1501 18.9587 14.1667V15.8334C18.9587 17.8501 17.8503 18.9584 15.8337 18.9584ZM14.167 12.2917C12.8503 12.2917 12.292 12.8501 12.292 14.1667V15.8334C12.292 17.1501 12.8503 17.7084 14.167 17.7084H15.8337C17.1503 17.7084 17.7087 17.1501 17.7087 15.8334V14.1667C17.7087 12.8501 17.1503 12.2917 15.8337 12.2917H14.167Z" fill="#3F6EEC"/>
<path d="M5.83366 18.9584H4.16699C2.15033 18.9584 1.04199 17.8501 1.04199 15.8334V14.1667C1.04199 12.1501 2.15033 11.0417 4.16699 11.0417H5.83366C7.85033 11.0417 8.95866 12.1501 8.95866 14.1667V15.8334C8.95866 17.8501 7.85033 18.9584 5.83366 18.9584ZM4.16699 12.2917C2.85033 12.2917 2.29199 12.8501 2.29199 14.1667V15.8334C2.29199 17.1501 2.85033 17.7084 4.16699 17.7084H5.83366C7.15033 17.7084 7.70866 17.1501 7.70866 15.8334V14.1667C7.70866 12.8501 7.15033 12.2917 5.83366 12.2917H4.16699Z" fill="#3F6EEC"/>
</svg>
