<svg width="59" height="47" viewBox="0 0 59 47" fill="none" xmlns="http://www.w3.org/2000/svg">
<g opacity="0.5">
<path d="M20.3068 23.5942C13.8703 23.5942 8.7029 18.4268 8.7029 11.9903C8.7029 5.64445 13.8703 0.386444 20.3068 0.386444C26.6526 0.386444 31.9107 5.64445 31.9107 11.9903C31.9107 18.4268 26.6526 23.5942 20.3068 23.5942ZM28.3751 26.4952C35.0836 26.4952 40.6136 32.0251 40.6136 38.7336V42.4505C40.6136 44.8982 38.6191 46.8019 36.2621 46.8019H4.35145C1.90376 46.8019 0 44.8982 0 42.4505V38.7336C0 32.0251 5.43932 26.4952 12.1478 26.4952H13.6889C15.6834 27.4924 17.9497 27.9456 20.3068 27.9456C22.6638 27.9456 24.8395 27.4924 26.834 26.4952H28.3751ZM57.6567 14.8913C58.11 15.3446 58.11 15.9791 57.6567 16.4324L44.8744 29.1242C44.4211 29.5774 43.7865 29.5774 43.3332 29.1242L35.8995 21.6904C35.5369 21.2372 35.5369 20.5119 35.8995 20.1493L38.4378 17.6109C38.8911 17.1577 39.6163 17.1577 39.979 17.6109L44.1491 21.7811L53.6679 12.3529C54.0305 11.8997 54.7558 11.8997 55.1184 12.3529L57.6567 14.8913Z" fill="white"/>
</g>
</svg>
