<svg width="24" height="24" viewBox="0 0 24 24" fill="none" xmlns="http://www.w3.org/2000/svg">
<path d="M18.9951 4.72754L18.3754 14.7526C18.217 17.3139 18.1379 18.5946 17.4959 19.5154C17.1784 19.9706 16.7698 20.3548 16.2958 20.6435C15.3372 21.2275 14.0541 21.2275 11.4878 21.2275C8.91824 21.2275 7.63342 21.2275 6.67417 20.6424C6.19992 20.3532 5.79112 19.9683 5.4738 19.5123C4.832 18.5901 4.75457 17.3076 4.59973 14.7427L3.99512 4.72754" stroke="#0D0D0D" stroke-width="1.5" stroke-linecap="round"/>
<path d="M2.49121 4.72656H20.4912M15.5469 4.72656L14.8643 3.31829C14.4108 2.38282 14.184 1.91508 13.7929 1.62337C13.7062 1.55866 13.6143 1.5011 13.5182 1.45126C13.0851 1.22656 12.5653 1.22656 11.5257 1.22656C10.46 1.22656 9.92721 1.22656 9.48689 1.46068C9.38931 1.51257 9.29619 1.57246 9.2085 1.63973C8.81285 1.94326 8.59184 2.42811 8.14982 3.39782L7.54413 4.72656" stroke="#0D0D0D" stroke-width="1.5" stroke-linecap="round"/>
<path d="M8.97656 15.7197V9.71973" stroke="#0D0D0D" stroke-width="1.5" stroke-linecap="round"/>
<path d="M13.9805 15.7197V9.71973" stroke="#0D0D0D" stroke-width="1.5" stroke-linecap="round"/>
</svg>
