<svg width="11" height="11" viewBox="0 0 11 11" fill="none" xmlns="http://www.w3.org/2000/svg">
<path d="M8.23633 2.0498L7.96763 6.39663C7.89895 7.50719 7.86465 8.06249 7.58628 8.46175C7.44862 8.65912 7.27145 8.8257 7.06593 8.95088C6.65029 9.2041 6.09394 9.2041 4.98121 9.2041C3.86706 9.2041 3.30997 9.2041 2.89404 8.95041C2.68841 8.82501 2.51116 8.65812 2.37357 8.4604C2.09529 8.06054 2.06171 7.50446 1.99458 6.39233L1.73242 2.0498" stroke="#B10000" stroke-width="0.650391" stroke-linecap="round"/>
<path d="M1.08008 2.0498H8.88477M6.74095 2.0498L6.44498 1.43919C6.24834 1.03357 6.15 0.830765 5.98042 0.704281C5.94283 0.676223 5.90298 0.651265 5.86132 0.629655C5.67353 0.532227 5.44814 0.532227 4.99738 0.532227C4.5353 0.532227 4.30428 0.532227 4.11336 0.633739C4.07105 0.656239 4.03067 0.682207 3.99265 0.711375C3.8211 0.842983 3.72527 1.05321 3.53362 1.47367L3.27099 2.0498" stroke="#B10000" stroke-width="0.650391" stroke-linecap="round"/>
<path d="M3.89258 6.81641V4.21484" stroke="#B10000" stroke-width="0.650391" stroke-linecap="round"/>
<path d="M6.06152 6.81641V4.21484" stroke="#B10000" stroke-width="0.650391" stroke-linecap="round"/>
</svg>
