<svg width="24" height="24" viewBox="0 0 24 24" fill="none" xmlns="http://www.w3.org/2000/svg">
<path d="M15.92 3.83067L16.91 2.84068C17.7302 2.02055 19.0599 2.02055 19.88 2.84068C20.7001 3.66082 20.7001 4.99051 19.88 5.81065L18.89 6.80064M15.92 3.83067L9.2607 10.49C8.75319 10.9976 8.39316 11.6334 8.21909 12.3297L7.49512 15.2256L10.391 14.5016C11.0873 14.3276 11.7231 13.9675 12.2307 13.46L18.89 6.80064M15.92 3.83067L18.89 6.80064" stroke="#0D0D0D" stroke-width="1.5" stroke-linejoin="round"/>
<path d="M18.4911 12.7227C18.4911 16.0102 18.4911 17.6539 17.5832 18.7603C17.417 18.9628 17.2313 19.1485 17.0287 19.3147C15.9224 20.2227 14.2786 20.2227 10.9911 20.2227H10.4912C6.71997 20.2227 4.83437 20.2227 3.6628 19.0511C2.49124 17.8796 2.49121 15.9939 2.49121 12.2227V11.7227C2.49121 8.43518 2.49121 6.79145 3.39915 5.6851C3.56538 5.48256 3.75111 5.29683 3.95365 5.1306C5.06 4.22266 6.70373 4.22266 9.99121 4.22266" stroke="#0D0D0D" stroke-width="1.5" stroke-linecap="round" stroke-linejoin="round"/>
</svg>
